<svg width="24" height="38" viewBox="0 0 24 38" fill="none" xmlns="http://www.w3.org/2000/svg">
<path d="M13.5 2C13.5 1.17157 12.8284 0.5 12 0.5C11.1716 0.5 10.5 1.17157 10.5 2H13.5ZM10.9393 37.5607C11.5251 38.1464 12.4749 38.1464 13.0607 37.5607L22.6066 28.0147C23.1924 27.4289 23.1924 26.4792 22.6066 25.8934C22.0208 25.3076 21.0711 25.3076 20.4853 25.8934L12 34.3787L3.51472 25.8934C2.92893 25.3076 1.97919 25.3076 1.3934 25.8934C0.807611 26.4792 0.807611 27.4289 1.3934 28.0147L10.9393 37.5607ZM12 2H10.5V36.5H12H13.5V2H12Z" fill="white"/>
</svg>
